<svg xmlns="http://www.w3.org/2000/svg" width="64" height="64" viewBox="0 0 64 64"><defs><linearGradient id="a" x1="0" y1="0" x2="0" y2="1"><stop offset="0%" stop-color="#f0f3f8"/><stop offset="25%" stop-color="#eceff4"/><stop offset="50%" stop-color="#dadee3"/><stop offset="75%" stop-color="#d2d7dd"/><stop offset="100%" stop-color="#ced3d9"/></linearGradient><linearGradient id="b" x1="0" y1="0" x2="1" y2="0"><stop offset="0" stop-opacity=".3"/><stop offset=".16" stop-opacity=".04"/><stop offset=".42" stop-opacity="0"/><stop offset=".6" stop-color="#fff" stop-opacity=".28"/><stop offset=".86" stop-opacity=".05"/><stop offset="1" stop-opacity=".3"/></linearGradient><linearGradient id="c" x1="0" y1="0" x2=".9" y2="1"><stop offset="0" stop-color="#fff" stop-opacity=".24"/><stop offset=".45" stop-color="#fff" stop-opacity=".04"/><stop offset="1" stop-color="#fff" stop-opacity=".13"/></linearGradient></defs><rect x="18.4" y="37" width="3.1" height="8" rx=".9" fill="#1b1c1e" opacity=".8"/><rect x="42.5" y="37" width="3.1" height="8" rx=".9" fill="#1b1c1e" opacity=".8"/><rect x="18.4" y="47.5" width="3.1" height="8" rx=".9" fill="#1b1c1e" opacity=".8"/><rect x="42.5" y="47.5" width="3.1" height="8" rx=".9" fill="#1b1c1e" opacity=".8"/><rect x="18.7" y="13.2" width="5.2" height="2.5" rx=".9" fill="#3e4448" opacity=".8"/><rect x="40.1" y="13.2" width="5.2" height="2.5" rx=".9" fill="#3e4448" opacity=".8"/><path d="M22.2 9.3L22.2 20.6Q22.2 21.5 21.3 21.5L21.2 21.5Q20.3 21.5 20.3 22.4L20.3 59Q20.3 60.5 21.8 60.5L42.2 60.5Q43.7 60.5 43.7 59L43.7 22.4Q43.7 21.5 42.8 21.5L42.7 21.5Q41.8 21.5 41.8 20.6L41.8 9.3Q41.8 4.5 37 4.5L27 4.5Q22.2 4.5 22.2 9.3Z" fill="none" stroke="#fff" stroke-opacity=".55" stroke-width="2.2" stroke-linejoin="round"/><path d="M22.2 9.3L22.2 20.6Q22.2 21.5 21.3 21.5L21.2 21.5Q20.3 21.5 20.3 22.4L20.3 59Q20.3 60.5 21.8 60.5L42.2 60.5Q43.7 60.5 43.7 59L43.7 22.4Q43.7 21.5 42.8 21.5L42.7 21.5Q41.8 21.5 41.8 20.6L41.8 9.3Q41.8 4.5 37 4.5L27 4.5Q22.2 4.5 22.2 9.3Z" fill="url(#a)"/><path d="M22.2 9.3L22.2 20.6Q22.2 21.5 21.3 21.5L21.2 21.5Q20.3 21.5 20.3 22.4L20.3 59Q20.3 60.5 21.8 60.5L42.2 60.5Q43.7 60.5 43.7 59L43.7 22.4Q43.7 21.5 42.8 21.5L42.7 21.5Q41.8 21.5 41.8 20.6L41.8 9.3Q41.8 4.5 37 4.5L27 4.5Q22.2 4.5 22.2 9.3Z" fill="url(#b)" stroke="#000" stroke-opacity=".22" stroke-width=".7"/><rect x="21.6" y="24" width="20.8" height="34.9" rx=".9" fill="#000" opacity=".07"/><path d="M21.6 24V58.9" stroke="#000" stroke-opacity=".16" stroke-width=".6"/><path d="M42.4 24V58.9" stroke="#000" stroke-opacity=".16" stroke-width=".6"/><rect x="25" y="18.1" width="14" height="2.2" rx=".7" fill="#e8961f" opacity=".95"/><path d="M38.4 10.2C40.8 10.5 39.6 11.4 40 12.2C40.4 13 40.6 13.9 40.7 14.8C40.8 15.7 43.6 17.1 40.7 17.6C37.8 18.1 26.2 18.1 23.3 17.6C20.4 17.1 23.2 15.7 23.3 14.8C23.4 13.9 23.6 13 24 12.2C24.4 11.4 23.2 10.5 25.6 10.2C28 9.9 36 9.9 38.4 10.2Z" fill="#3e4448"/><path d="M38.4 10.2C40.8 10.5 39.6 11.4 40 12.2C40.4 13 40.6 13.9 40.7 14.8C40.8 15.7 43.6 17.1 40.7 17.6C37.8 18.1 26.2 18.1 23.3 17.6C20.4 17.1 23.2 15.7 23.3 14.8C23.4 13.9 23.6 13 24 12.2C24.4 11.4 23.2 10.5 25.6 10.2C28 9.9 36 9.9 38.4 10.2Z" fill="url(#c)"/></svg>